<svg width="503" height="119" viewBox="0 0 503 119" fill="none" xmlns="http://www.w3.org/2000/svg">
<mask id="path-1-outside-1_1_92" maskUnits="userSpaceOnUse" x="-1" y="-1" width="505" height="121" fill="black">
<rect fill="white" x="-1" y="-1" width="505" height="121"/>
<path d="M24.944 46.768C21.4027 46.768 18.1387 46.2133 15.152 45.104C12.208 43.952 9.62667 42.3307 7.408 40.24C5.232 38.1493 3.52533 35.696 2.288 32.88C1.09333 30.064 0.496 26.9707 0.496 23.6C0.496 20.2293 1.09333 17.136 2.288 14.32C3.52533 11.504 5.25333 9.05066 7.472 6.96C9.69067 4.86933 12.2933 3.26933 15.28 2.16C18.2667 1.008 21.552 0.431999 25.136 0.431999C29.104 0.431999 32.6667 1.09333 35.824 2.416C39.024 3.73866 41.712 5.65866 43.888 8.176L37.232 14.32C35.6107 12.6133 33.84 11.3547 31.92 10.544C30 9.69067 27.9093 9.264 25.648 9.264C23.472 9.264 21.488 9.60533 19.696 10.288C17.904 10.9707 16.3467 11.952 15.024 13.232C13.744 14.512 12.7413 16.0267 12.016 17.776C11.3333 19.5253 10.992 21.4667 10.992 23.6C10.992 25.6907 11.3333 27.6107 12.016 29.36C12.7413 31.1093 13.744 32.6453 15.024 33.968C16.3467 35.248 17.8827 36.2293 19.632 36.912C21.424 37.5947 23.3867 37.936 25.52 37.936C27.568 37.936 29.552 37.616 31.472 36.976C33.4347 36.2933 35.3333 35.1627 37.168 33.584L43.056 41.072C40.624 42.9067 37.7867 44.3147 34.544 45.296C31.344 46.2773 28.144 46.768 24.944 46.768ZM33.584 39.728V22.896H43.056V41.072L33.584 39.728ZM62.223 19.248H83.791V27.312H62.223V19.248ZM62.991 37.68H87.375V46H52.687V1.2H86.543V9.52H62.991V37.68ZM104.905 46V9.648H90.5685V1.2H129.609V9.648H115.273V46H104.905ZM147.424 46L167.392 1.2H177.632L197.664 46H186.784L170.4 6.448H174.496L158.048 46H147.424ZM157.408 36.4L160.16 28.528H183.2L186.016 36.4H157.408ZM202.312 46V1.2H210.888L237.32 33.456H233.16V1.2H243.4V46H234.888L208.392 13.744H212.552V46H202.312Z"/>
<path d="M3.312 118V73.2H13.68V118H3.312ZM24.312 118V73.2H32.888L59.32 105.456H55.16V73.2H65.4V118H56.888L30.392 85.744H34.552V118H24.312ZM85.2795 118V81.648H70.9435V73.2H109.984V81.648H95.6475V118H85.2795ZM125.098 91.248H146.666V99.312H125.098V91.248ZM125.866 109.68H150.25V118H115.562V73.2H149.418V81.52H125.866V109.68ZM158.5 118V73.2H177.892C181.902 73.2 185.358 73.8613 188.26 75.184C191.161 76.464 193.401 78.32 194.98 80.752C196.558 83.184 197.348 86.0853 197.348 89.456C197.348 92.784 196.558 95.664 194.98 98.096C193.401 100.485 191.161 102.32 188.26 103.6C185.358 104.88 181.902 105.52 177.892 105.52H164.26L168.868 100.976V118H158.5ZM186.979 118L175.78 101.744H186.852L198.18 118H186.979ZM168.868 102.128L164.26 97.264H177.316C180.516 97.264 182.905 96.5813 184.484 95.216C186.062 93.808 186.852 91.888 186.852 89.456C186.852 86.9813 186.062 85.0613 184.484 83.696C182.905 82.3307 180.516 81.648 177.316 81.648H164.26L168.868 76.72V102.128ZM219.002 118L199.674 73.2H210.874L227.77 112.88H221.178L238.33 73.2H248.634L229.242 118H219.002ZM261.911 91.248H283.479V99.312H261.911V91.248ZM262.679 109.68H287.062V118H252.375V73.2H286.231V81.52H262.679V109.68ZM295.312 118V73.2H303.888L330.32 105.456H326.16V73.2H336.4V118H327.888L301.392 85.744H305.552V118H295.312ZM356.28 118V81.648H341.944V73.2H380.984V81.648H366.648V118H356.28ZM386.562 118V73.2H396.93V118H386.562ZM429.322 118.768C425.781 118.768 422.495 118.192 419.466 117.04C416.479 115.888 413.877 114.267 411.658 112.176C409.482 110.085 407.775 107.632 406.538 104.816C405.343 102 404.746 98.928 404.746 95.6C404.746 92.272 405.343 89.2 406.538 86.384C407.775 83.568 409.503 81.1147 411.722 79.024C413.941 76.9333 416.543 75.312 419.53 74.16C422.517 73.008 425.759 72.432 429.258 72.432C432.799 72.432 436.042 73.008 438.986 74.16C441.973 75.312 444.554 76.9333 446.73 79.024C448.949 81.1147 450.677 83.568 451.914 86.384C453.151 89.1573 453.77 92.2293 453.77 95.6C453.77 98.928 453.151 102.021 451.914 104.88C450.677 107.696 448.949 110.149 446.73 112.24C444.554 114.288 441.973 115.888 438.986 117.04C436.042 118.192 432.821 118.768 429.322 118.768ZM429.258 109.936C431.263 109.936 433.098 109.595 434.762 108.912C436.469 108.229 437.962 107.248 439.242 105.968C440.522 104.688 441.503 103.173 442.186 101.424C442.911 99.6747 443.274 97.7333 443.274 95.6C443.274 93.4667 442.911 91.5253 442.186 89.776C441.503 88.0267 440.522 86.512 439.242 85.232C438.005 83.952 436.533 82.9707 434.826 82.288C433.119 81.6053 431.263 81.264 429.258 81.264C427.253 81.264 425.397 81.6053 423.69 82.288C422.026 82.9707 420.554 83.952 419.274 85.232C417.994 86.512 416.991 88.0267 416.266 89.776C415.583 91.5253 415.242 93.4667 415.242 95.6C415.242 97.6907 415.583 99.632 416.266 101.424C416.991 103.173 417.973 104.688 419.21 105.968C420.49 107.248 421.983 108.229 423.69 108.912C425.397 109.595 427.253 109.936 429.258 109.936ZM461.562 118V73.2H470.138L496.57 105.456H492.41V73.2H502.65V118H494.138L467.642 85.744H471.802V118H461.562Z"/>
</mask>
<path d="M3.312 118V73.2H13.68V118H3.312ZM24.312 118V73.2H32.888L59.32 105.456H55.16V73.2H65.4V118H56.888L30.392 85.744H34.552V118H24.312ZM85.2795 118V81.648H70.9435V73.2H109.984V81.648H95.6475V118H85.2795ZM125.098 91.248H146.666V99.312H125.098V91.248ZM125.866 109.68H150.25V118H115.562V73.2H149.418V81.52H125.866V109.68ZM158.5 118V73.2H177.892C181.902 73.2 185.358 73.8613 188.26 75.184C191.161 76.464 193.401 78.32 194.98 80.752C196.558 83.184 197.348 86.0853 197.348 89.456C197.348 92.784 196.558 95.664 194.98 98.096C193.401 100.485 191.161 102.32 188.26 103.6C185.358 104.88 181.902 105.52 177.892 105.52H164.26L168.868 100.976V118H158.5ZM186.979 118L175.78 101.744H186.852L198.18 118H186.979ZM168.868 102.128L164.26 97.264H177.316C180.516 97.264 182.905 96.5813 184.484 95.216C186.062 93.808 186.852 91.888 186.852 89.456C186.852 86.9813 186.062 85.0613 184.484 83.696C182.905 82.3307 180.516 81.648 177.316 81.648H164.26L168.868 76.72V102.128ZM219.002 118L199.674 73.2H210.874L227.77 112.88H221.178L238.33 73.2H248.634L229.242 118H219.002ZM261.911 91.248H283.479V99.312H261.911V91.248ZM262.679 109.68H287.062V118H252.375V73.2H286.231V81.52H262.679V109.68ZM295.312 118V73.2H303.888L330.32 105.456H326.16V73.2H336.4V118H327.888L301.392 85.744H305.552V118H295.312ZM356.28 118V81.648H341.944V73.2H380.984V81.648H366.648V118H356.28ZM386.562 118V73.2H396.93V118H386.562ZM429.322 118.768C425.781 118.768 422.495 118.192 419.466 117.04C416.479 115.888 413.877 114.267 411.658 112.176C409.482 110.085 407.775 107.632 406.538 104.816C405.343 102 404.746 98.928 404.746 95.6C404.746 92.272 405.343 89.2 406.538 86.384C407.775 83.568 409.503 81.1147 411.722 79.024C413.941 76.9333 416.543 75.312 419.53 74.16C422.517 73.008 425.759 72.432 429.258 72.432C432.799 72.432 436.042 73.008 438.986 74.16C441.973 75.312 444.554 76.9333 446.73 79.024C448.949 81.1147 450.677 83.568 451.914 86.384C453.151 89.1573 453.77 92.2293 453.77 95.6C453.77 98.928 453.151 102.021 451.914 104.88C450.677 107.696 448.949 110.149 446.73 112.24C444.554 114.288 441.973 115.888 438.986 117.04C436.042 118.192 432.821 118.768 429.322 118.768ZM429.258 109.936C431.263 109.936 433.098 109.595 434.762 108.912C436.469 108.229 437.962 107.248 439.242 105.968C440.522 104.688 441.503 103.173 442.186 101.424C442.911 99.6747 443.274 97.7333 443.274 95.6C443.274 93.4667 442.911 91.5253 442.186 89.776C441.503 88.0267 440.522 86.512 439.242 85.232C438.005 83.952 436.533 82.9707 434.826 82.288C433.119 81.6053 431.263 81.264 429.258 81.264C427.253 81.264 425.397 81.6053 423.69 82.288C422.026 82.9707 420.554 83.952 419.274 85.232C417.994 86.512 416.991 88.0267 416.266 89.776C415.583 91.5253 415.242 93.4667 415.242 95.6C415.242 97.6907 415.583 99.632 416.266 101.424C416.991 103.173 417.973 104.688 419.21 105.968C420.49 107.248 421.983 108.229 423.69 108.912C425.397 109.595 427.253 109.936 429.258 109.936ZM461.562 118V73.2H470.138L496.57 105.456H492.41V73.2H502.65V118H494.138L467.642 85.744H471.802V118H461.562Z" fill="white"/>
<path d="M15.152 45.104L14.7876 46.0352L14.7957 46.0384L14.8038 46.0414L15.152 45.104ZM7.408 40.24L6.71514 40.9611L6.7222 40.9678L7.408 40.24ZM2.288 32.88L1.36734 33.2706L1.37248 33.2823L2.288 32.88ZM2.288 14.32L1.37241 13.9177L1.36742 13.9294L2.288 14.32ZM7.472 6.96L8.1578 7.68779H8.1578L7.472 6.96ZM15.28 2.16L15.6282 3.09749L15.6399 3.093L15.28 2.16ZM35.824 2.416L35.4376 3.33834L35.442 3.34016L35.824 2.416ZM43.888 8.176L44.5663 8.9108L45.2775 8.2543L44.6445 7.52205L43.888 8.176ZM37.232 14.32L36.507 15.0087L37.1859 15.7234L37.9103 15.0548L37.232 14.32ZM31.92 10.544L31.5139 11.4578L31.5224 11.4616L31.531 11.4652L31.92 10.544ZM15.024 13.232L14.3286 12.5134L14.3227 12.5191L14.3169 12.5249L15.024 13.232ZM12.016 17.776L11.0923 17.393L11.0882 17.4027L11.0844 17.4125L12.016 17.776ZM12.016 29.36L11.0844 29.7235L11.0882 29.7333L11.0923 29.743L12.016 29.36ZM15.024 33.968L14.3054 34.6634L14.3168 34.6752L14.3286 34.6866L15.024 33.968ZM19.632 36.912L19.2684 37.8436L19.276 37.8465L19.632 36.912ZM31.472 36.976L31.7883 37.9248L31.8005 37.9205L31.472 36.976ZM37.168 33.584L37.9541 32.9659L37.308 32.1443L36.5158 32.826L37.168 33.584ZM43.056 41.072L43.6582 41.8703L44.4727 41.2559L43.8421 40.4539L43.056 41.072ZM34.544 45.296L34.2543 44.3389L34.2508 44.3399L34.544 45.296ZM33.584 39.728H32.584V40.5961L33.4435 40.7181L33.584 39.728ZM33.584 22.896V21.896H32.584V22.896H33.584ZM43.056 22.896H44.056V21.896H43.056V22.896ZM43.056 41.072L42.9155 42.0621L44.056 42.2239V41.072H43.056ZM24.944 45.768C21.5083 45.768 18.3637 45.2302 15.5002 44.1666L14.8038 46.0414C17.9136 47.1965 21.297 47.768 24.944 47.768V45.768ZM15.5164 44.1728C12.6871 43.0656 10.2159 41.5119 8.0938 39.5122L6.7222 40.9678C9.03745 43.1495 11.7289 44.8384 14.7876 46.0352L15.5164 44.1728ZM8.10083 39.5189C6.02106 37.5207 4.38924 35.1763 3.20352 32.4777L1.37248 33.2823C2.66142 36.2157 4.44294 38.778 6.71517 40.9611L8.10083 39.5189ZM3.20858 32.4894C2.07144 29.809 1.496 26.8502 1.496 23.6H-0.504C-0.504 27.0911 0.115231 30.319 1.36742 33.2705L3.20858 32.4894ZM1.496 23.6C1.496 20.3498 2.07144 17.391 3.20858 14.7105L1.36742 13.9294C0.115231 16.881 -0.504 20.1089 -0.504 23.6H1.496ZM3.20352 14.7223C4.38739 12.028 6.03766 9.68561 8.1578 7.68779L6.7862 6.23221C4.469 8.41572 2.66328 10.98 1.37248 13.9177L3.20352 14.7223ZM8.1578 7.68779C10.2747 5.69301 12.7612 4.16231 15.6282 3.09742L14.9318 1.22257C11.8255 2.37635 9.10662 4.04565 6.7862 6.23221L8.1578 7.68779ZM15.6399 3.093C18.4988 1.99027 21.6604 1.432 25.136 1.432V-0.568001C21.4436 -0.568001 18.0345 0.0257292 14.9201 1.22699L15.6399 3.093ZM25.136 1.432C28.9922 1.432 32.4205 2.07443 35.4376 3.33834L36.2104 1.49366C32.9128 0.112234 29.2158 -0.568001 25.136 -0.568001V1.432ZM35.442 3.34016C38.5038 4.60571 41.0617 6.43553 43.1315 8.82995L44.6445 7.52205C42.3623 4.8818 39.5442 2.87161 36.206 1.49183L35.442 3.34016ZM43.2097 7.44119L36.5537 13.5852L37.9103 15.0548L44.5663 8.9108L43.2097 7.44119ZM37.957 13.6312C36.2531 11.8377 34.3712 10.4935 32.309 9.62275L31.531 11.4652C33.3088 12.2158 34.9682 13.389 36.507 15.0087L37.957 13.6312ZM32.3261 9.63019C30.2687 8.71579 28.0384 8.264 25.648 8.264V10.264C27.7802 10.264 29.7313 10.6655 31.5139 11.4578L32.3261 9.63019ZM25.648 8.264C23.3666 8.264 21.2599 8.6221 19.34 9.35351L20.052 11.2225C21.7161 10.5886 23.5774 10.264 25.648 10.264V8.264ZM19.34 9.35351C17.4268 10.0823 15.7527 11.1352 14.3286 12.5134L15.7194 13.9506C16.9407 12.7688 18.3812 11.859 20.052 11.2225L19.34 9.35351ZM14.3169 12.5249C12.9399 13.9019 11.8655 15.5281 11.0923 17.393L12.9397 18.159C13.6172 16.5252 14.5481 15.1221 15.7311 13.9391L14.3169 12.5249ZM11.0844 17.4125C10.3508 19.2923 9.992 21.3591 9.992 23.6H11.992C11.992 21.5743 12.3159 19.7583 12.9476 18.1395L11.0844 17.4125ZM9.992 23.6C9.992 25.801 10.3517 27.8459 11.0844 29.7235L12.9476 28.9965C12.315 27.3754 11.992 25.5803 11.992 23.6H9.992ZM11.0923 29.743C11.8643 31.605 12.9355 33.2478 14.3054 34.6634L15.7426 33.2726C14.5525 32.0429 13.6184 30.6136 12.9397 28.977L11.0923 29.743ZM14.3286 34.6866C15.7486 36.0608 17.398 37.1137 19.2685 37.8436L19.9955 35.9804C18.3673 35.345 16.9447 34.4352 15.7194 33.2494L14.3286 34.6866ZM19.276 37.8465C21.1938 38.5771 23.2786 38.936 25.52 38.936V36.936C23.4947 36.936 21.6542 36.6123 19.988 35.9775L19.276 37.8465ZM25.52 38.936C27.6742 38.936 29.765 38.5991 31.7882 37.9247L31.1558 36.0273C29.339 36.6329 27.4618 36.936 25.52 36.936V38.936ZM31.8005 37.9205C33.8997 37.1903 35.9058 35.9893 37.8202 34.342L36.5158 32.826C34.7609 34.336 32.9696 35.3963 31.1435 36.0315L31.8005 37.9205ZM36.3819 34.2021L42.2699 41.6901L43.8421 40.4539L37.9541 32.9659L36.3819 34.2021ZM42.4538 40.2737C40.1257 42.0299 37.3969 43.3878 34.2543 44.3389L34.8337 46.2531C38.1765 45.2415 41.1223 43.7834 43.6582 41.8703L42.4538 40.2737ZM34.2508 44.3399C31.1414 45.2935 28.0401 45.768 24.944 45.768V47.768C28.2479 47.768 31.5466 47.2612 34.8372 46.2521L34.2508 44.3399ZM34.584 39.728V22.896H32.584V39.728H34.584ZM33.584 23.896H43.056V21.896H33.584V23.896ZM42.056 22.896V41.072H44.056V22.896H42.056ZM43.1965 40.0819L33.7245 38.7379L33.4435 40.7181L42.9155 42.0621L43.1965 40.0819ZM62.223 19.248V18.248H61.223V19.248H62.223ZM83.791 19.248H84.791V18.248H83.791V19.248ZM83.791 27.312V28.312H84.791V27.312H83.791ZM62.223 27.312H61.223V28.312H62.223V27.312ZM62.991 37.68H61.991V38.68H62.991V37.68ZM87.375 37.68H88.375V36.68H87.375V37.68ZM87.375 46V47H88.375V46H87.375ZM52.687 46H51.687V47H52.687V46ZM52.687 1.2V0.199997H51.687V1.2H52.687ZM86.543 1.2H87.543V0.199997H86.543V1.2ZM86.543 9.52V10.52H87.543V9.52H86.543ZM62.991 9.52V8.52H61.991V9.52H62.991ZM62.223 20.248H83.791V18.248H62.223V20.248ZM82.791 19.248V27.312H84.791V19.248H82.791ZM83.791 26.312H62.223V28.312H83.791V26.312ZM63.223 27.312V19.248H61.223V27.312H63.223ZM62.991 38.68H87.375V36.68H62.991V38.68ZM86.375 37.68V46H88.375V37.68H86.375ZM87.375 45H52.687V47H87.375V45ZM53.687 46V1.2H51.687V46H53.687ZM52.687 2.2H86.543V0.199997H52.687V2.2ZM85.543 1.2V9.52H87.543V1.2H85.543ZM86.543 8.52H62.991V10.52H86.543V8.52ZM61.991 9.52V37.68H63.991V9.52H61.991ZM104.905 46H103.905V47H104.905V46ZM104.905 9.648H105.905V8.648H104.905V9.648ZM90.5685 9.648H89.5685V10.648H90.5685V9.648ZM90.5685 1.2V0.199997H89.5685V1.2H90.5685ZM129.609 1.2H130.609V0.199997H129.609V1.2ZM129.609 9.648V10.648H130.609V9.648H129.609ZM115.272 9.648V8.648H114.272V9.648H115.272ZM115.272 46V47H116.272V46H115.272ZM105.905 46V9.648H103.905V46H105.905ZM104.905 8.648H90.5685V10.648H104.905V8.648ZM91.5685 9.648V1.2H89.5685V9.648H91.5685ZM90.5685 2.2H129.609V0.199997H90.5685V2.2ZM128.609 1.2V9.648H130.609V1.2H128.609ZM129.609 8.648H115.272V10.648H129.609V8.648ZM114.272 9.648V46H116.272V9.648H114.272ZM115.272 45H104.905V47H115.272V45ZM147.424 46L146.511 45.5929L145.883 47H147.424V46ZM167.392 1.2V0.199997H166.743L166.479 0.792891L167.392 1.2ZM177.632 1.2L178.545 0.791802L178.28 0.199997H177.632V1.2ZM197.664 46V47H199.207L198.577 45.5918L197.664 46ZM186.784 46L185.86 46.3827L186.116 47H186.784V46ZM170.4 6.448V5.448H168.903L169.476 6.8307L170.4 6.448ZM174.496 6.448L175.419 6.83198L175.995 5.448H174.496V6.448ZM158.048 46V47H158.715L158.971 46.384L158.048 46ZM157.408 36.4L156.464 36.07L155.999 37.4H157.408V36.4ZM160.16 28.528V27.528H159.45L159.216 28.198L160.16 28.528ZM183.2 28.528L184.142 28.1912L183.904 27.528H183.2V28.528ZM186.016 36.4V37.4H187.436L186.958 36.0632L186.016 36.4ZM148.337 46.4071L168.305 1.6071L166.479 0.792891L146.511 45.5929L148.337 46.4071ZM167.392 2.2H177.632V0.199997H167.392V2.2ZM176.719 1.60819L196.751 46.4082L198.577 45.5918L178.545 0.791802L176.719 1.60819ZM197.664 45H186.784V47H197.664V45ZM187.708 45.6173L171.324 6.06529L169.476 6.8307L185.86 46.3827L187.708 45.6173ZM170.4 7.448H174.496V5.448H170.4V7.448ZM173.573 6.06402L157.125 45.616L158.971 46.384L175.419 6.83198L173.573 6.06402ZM158.048 45H147.424V47H158.048V45ZM158.352 36.73L161.104 28.858L159.216 28.198L156.464 36.07L158.352 36.73ZM160.16 29.528H183.2V27.528H160.16V29.528ZM182.258 28.8648L185.074 36.7368L186.958 36.0632L184.142 28.1912L182.258 28.8648ZM186.016 35.4H157.408V37.4H186.016V35.4ZM202.312 46H201.312V47H202.312V46ZM202.312 1.2V0.199997H201.312V1.2H202.312ZM210.888 1.2L211.661 0.566175L211.361 0.199997H210.888V1.2ZM237.32 33.456V34.456H239.432L238.093 32.8222L237.32 33.456ZM233.16 33.456H232.16V34.456H233.16V33.456ZM233.16 1.2V0.199997H232.16V1.2H233.16ZM243.4 1.2H244.4V0.199997H243.4V1.2ZM243.4 46V47H244.4V46H243.4ZM234.888 46L234.115 46.6347L234.415 47H234.888V46ZM208.392 13.744V12.744H206.276L207.619 14.3787L208.392 13.744ZM212.552 13.744H213.552V12.744H212.552V13.744ZM212.552 46V47H213.552V46H212.552ZM203.312 46V1.2H201.312V46H203.312ZM202.312 2.2H210.888V0.199997H202.312V2.2ZM210.115 1.83382L236.547 34.0898L238.093 32.8222L211.661 0.566175L210.115 1.83382ZM237.32 32.456H233.16V34.456H237.32V32.456ZM234.16 33.456V1.2H232.16V33.456H234.16ZM233.16 2.2H243.4V0.199997H233.16V2.2ZM242.4 1.2V46H244.4V1.2H242.4ZM243.4 45H234.888V47H243.4V45ZM235.661 45.3653L209.165 13.1093L207.619 14.3787L234.115 46.6347L235.661 45.3653ZM208.392 14.744H212.552V12.744H208.392V14.744ZM211.552 13.744V46H213.552V13.744H211.552ZM212.552 45H202.312V47H212.552V45ZM3.312 118H2.312V119H3.312V118ZM3.312 73.2V72.2H2.312V73.2H3.312ZM13.68 73.2H14.68V72.2H13.68V73.2ZM13.68 118V119H14.68V118H13.68ZM4.312 118V73.2H2.312V118H4.312ZM3.312 74.2H13.68V72.2H3.312V74.2ZM12.68 73.2V118H14.68V73.2H12.68ZM13.68 117H3.312V119H13.68V117ZM24.312 118H23.312V119H24.312V118ZM24.312 73.2V72.2H23.312V73.2H24.312ZM32.888 73.2L33.6615 72.5662L33.3614 72.2H32.888V73.2ZM59.32 105.456V106.456H61.4323L60.0935 104.822L59.32 105.456ZM55.16 105.456H54.16V106.456H55.16V105.456ZM55.16 73.2V72.2H54.16V73.2H55.16ZM65.4 73.2H66.4V72.2H65.4V73.2ZM65.4 118V119H66.4V118H65.4ZM56.888 118L56.1153 118.635L56.4153 119H56.888V118ZM30.392 85.744V84.744H28.2765L29.6193 86.3787L30.392 85.744ZM34.552 85.744H35.552V84.744H34.552V85.744ZM34.552 118V119H35.552V118H34.552ZM25.312 118V73.2H23.312V118H25.312ZM24.312 74.2H32.888V72.2H24.312V74.2ZM32.1145 73.8338L58.5465 106.09L60.0935 104.822L33.6615 72.5662L32.1145 73.8338ZM59.32 104.456H55.16V106.456H59.32V104.456ZM56.16 105.456V73.2H54.16V105.456H56.16ZM55.16 74.2H65.4V72.2H55.16V74.2ZM64.4 73.2V118H66.4V73.2H64.4ZM65.4 117H56.888V119H65.4V117ZM57.6607 117.365L31.1647 85.1093L29.6193 86.3787L56.1153 118.635L57.6607 117.365ZM30.392 86.744H34.552V84.744H30.392V86.744ZM33.552 85.744V118H35.552V85.744H33.552ZM34.552 117H24.312V119H34.552V117ZM85.2795 118H84.2795V119H85.2795V118ZM85.2795 81.648H86.2795V80.648H85.2795V81.648ZM70.9435 81.648H69.9435V82.648H70.9435V81.648ZM70.9435 73.2V72.2H69.9435V73.2H70.9435ZM109.984 73.2H110.984V72.2H109.984V73.2ZM109.984 81.648V82.648H110.984V81.648H109.984ZM95.6475 81.648V80.648H94.6475V81.648H95.6475ZM95.6475 118V119H96.6475V118H95.6475ZM86.2795 118V81.648H84.2795V118H86.2795ZM85.2795 80.648H70.9435V82.648H85.2795V80.648ZM71.9435 81.648V73.2H69.9435V81.648H71.9435ZM70.9435 74.2H109.984V72.2H70.9435V74.2ZM108.984 73.2V81.648H110.984V73.2H108.984ZM109.984 80.648H95.6475V82.648H109.984V80.648ZM94.6475 81.648V118H96.6475V81.648H94.6475ZM95.6475 117H85.2795V119H95.6475V117ZM125.098 91.248V90.248H124.098V91.248H125.098ZM146.666 91.248H147.666V90.248H146.666V91.248ZM146.666 99.312V100.312H147.666V99.312H146.666ZM125.098 99.312H124.098V100.312H125.098V99.312ZM125.866 109.68H124.866V110.68H125.866V109.68ZM150.25 109.68H151.25V108.68H150.25V109.68ZM150.25 118V119H151.25V118H150.25ZM115.562 118H114.562V119H115.562V118ZM115.562 73.2V72.2H114.562V73.2H115.562ZM149.418 73.2H150.418V72.2H149.418V73.2ZM149.418 81.52V82.52H150.418V81.52H149.418ZM125.866 81.52V80.52H124.866V81.52H125.866ZM125.098 92.248H146.666V90.248H125.098V92.248ZM145.666 91.248V99.312H147.666V91.248H145.666ZM146.666 98.312H125.098V100.312H146.666V98.312ZM126.098 99.312V91.248H124.098V99.312H126.098ZM125.866 110.68H150.25V108.68H125.866V110.68ZM149.25 109.68V118H151.25V109.68H149.25ZM150.25 117H115.562V119H150.25V117ZM116.562 118V73.2H114.562V118H116.562ZM115.562 74.2H149.418V72.2H115.562V74.2ZM148.418 73.2V81.52H150.418V73.2H148.418ZM149.418 80.52H125.866V82.52H149.418V80.52ZM124.866 81.52V109.68H126.866V81.52H124.866ZM158.499 118H157.499V119H158.499V118ZM158.499 73.2V72.2H157.499V73.2H158.499ZM188.26 75.184L187.845 76.094L187.856 76.0989L188.26 75.184ZM194.98 80.752L194.141 81.2965L194.98 80.752ZM194.98 98.096L195.814 98.6473L195.818 98.6405L194.98 98.096ZM188.26 103.6L188.663 104.515L188.26 103.6ZM164.26 105.52L163.557 104.808L161.821 106.52H164.26V105.52ZM168.867 100.976H169.867V98.5855L168.165 100.264L168.867 100.976ZM168.867 118V119H169.867V118H168.867ZM186.979 118L186.156 118.567L186.454 119H186.979V118ZM175.779 101.744V100.744H173.876L174.956 102.311L175.779 101.744ZM186.852 101.744L187.672 101.172L187.374 100.744H186.852V101.744ZM198.18 118V119H200.095L199 117.428L198.18 118ZM168.867 102.128L168.142 102.816L169.867 104.638V102.128H168.867ZM164.26 97.264V96.264H161.935L163.534 97.9517L164.26 97.264ZM184.484 95.216L185.138 95.9724L185.143 95.9674L185.149 95.9623L184.484 95.216ZM164.26 81.648L163.529 80.965L161.955 82.648H164.26V81.648ZM168.867 76.72H169.867V74.1864L168.137 76.037L168.867 76.72ZM159.499 118V73.2H157.499V118H159.499ZM158.499 74.2H177.891V72.2H158.499V74.2ZM177.891 74.2C181.795 74.2 185.103 74.8438 187.845 76.0939L188.674 74.2741C185.614 72.8788 182.01 72.2 177.891 72.2V74.2ZM187.856 76.0989C190.597 77.3081 192.678 79.0429 194.141 81.2965L195.818 80.2075C194.124 77.5971 191.725 75.6199 188.663 74.2691L187.856 76.0989ZM194.141 81.2965C195.598 83.5414 196.348 86.2465 196.348 89.456H198.348C198.348 85.9242 197.518 82.8266 195.818 80.2075L194.141 81.2965ZM196.348 89.456C196.348 92.62 195.599 95.3046 194.141 97.5515L195.818 98.6405C197.517 96.0234 198.348 92.948 198.348 89.456H196.348ZM194.145 97.5447C192.683 99.7572 190.601 101.474 187.856 102.685L188.663 104.515C191.72 103.166 194.118 101.214 195.814 98.6473L194.145 97.5447ZM187.856 102.685C185.111 103.896 181.799 104.52 177.891 104.52V106.52C182.006 106.52 185.606 105.864 188.663 104.515L187.856 102.685ZM177.891 104.52H164.26V106.52H177.891V104.52ZM164.962 106.232L169.57 101.688L168.165 100.264L163.557 104.808L164.962 106.232ZM167.867 100.976V118H169.867V100.976H167.867ZM168.867 117H158.499V119H168.867V117ZM187.803 117.433L176.603 101.177L174.956 102.311L186.156 118.567L187.803 117.433ZM175.779 102.744H186.852V100.744H175.779V102.744ZM186.031 102.316L197.359 118.572L199 117.428L187.672 101.172L186.031 102.316ZM198.18 117H186.979V119H198.18V117ZM169.593 101.44L164.985 96.5763L163.534 97.9517L168.142 102.816L169.593 101.44ZM164.26 98.264H177.316V96.264H164.26V98.264ZM177.316 98.264C180.633 98.264 183.302 97.5599 185.138 95.9724L183.829 94.4596C182.508 95.6027 180.398 96.264 177.316 96.264V98.264ZM185.149 95.9623C186.973 94.3353 187.852 92.1259 187.852 89.456H185.852C185.852 91.6501 185.151 93.2807 183.818 94.4697L185.149 95.9623ZM187.852 89.456C187.852 86.7503 186.977 84.5306 185.138 82.9396L183.829 84.4524C185.147 85.5921 185.852 87.2124 185.852 89.456H187.852ZM185.138 82.9396C183.302 81.3521 180.633 80.648 177.316 80.648V82.648C180.398 82.648 182.508 83.3093 183.829 84.4524L185.138 82.9396ZM177.316 80.648H164.26V82.648H177.316V80.648ZM164.99 82.331L169.598 77.403L168.137 76.037L163.529 80.965L164.99 82.331ZM167.867 76.72V102.128H169.867V76.72H167.867ZM219.002 118L218.084 118.396L218.344 119H219.002V118ZM199.674 73.2V72.2H198.153L198.756 73.5961L199.674 73.2ZM210.874 73.2L211.794 72.8082L211.535 72.2H210.874V73.2ZM227.77 112.88V113.88H229.283L228.69 112.488L227.77 112.88ZM221.178 112.88L220.26 112.483L219.656 113.88H221.178V112.88ZM238.33 73.2V72.2H237.673L237.412 72.8032L238.33 73.2ZM248.634 73.2L249.552 73.5972L250.157 72.2H248.634V73.2ZM229.242 118V119H229.899L230.16 118.397L229.242 118ZM219.92 117.604L200.592 72.8039L198.756 73.5961L218.084 118.396L219.92 117.604ZM199.674 74.2H210.874V72.2H199.674V74.2ZM209.954 73.5918L226.85 113.272L228.69 112.488L211.794 72.8082L209.954 73.5918ZM227.77 111.88H221.178V113.88H227.77V111.88ZM222.096 113.277L239.248 73.5968L237.412 72.8032L220.26 112.483L222.096 113.277ZM238.33 74.2H248.634V72.2H238.33V74.2ZM247.716 72.8028L228.324 117.603L230.16 118.397L249.552 73.5972L247.716 72.8028ZM229.242 117H219.002V119H229.242V117ZM261.91 91.248V90.248H260.91V91.248H261.91ZM283.479 91.248H284.479V90.248H283.479V91.248ZM283.479 99.312V100.312H284.479V99.312H283.479ZM261.91 99.312H260.91V100.312H261.91V99.312ZM262.678 109.68H261.678V110.68H262.678V109.68ZM287.062 109.68H288.062V108.68H287.062V109.68ZM287.062 118V119H288.062V118H287.062ZM252.374 118H251.374V119H252.374V118ZM252.374 73.2V72.2H251.374V73.2H252.374ZM286.23 73.2H287.23V72.2H286.23V73.2ZM286.23 81.52V82.52H287.23V81.52H286.23ZM262.678 81.52V80.52H261.678V81.52H262.678ZM261.91 92.248H283.479V90.248H261.91V92.248ZM282.479 91.248V99.312H284.479V91.248H282.479ZM283.479 98.312H261.91V100.312H283.479V98.312ZM262.91 99.312V91.248H260.91V99.312H262.91ZM262.678 110.68H287.062V108.68H262.678V110.68ZM286.062 109.68V118H288.062V109.68H286.062ZM287.062 117H252.374V119H287.062V117ZM253.374 118V73.2H251.374V118H253.374ZM252.374 74.2H286.23V72.2H252.374V74.2ZM285.23 73.2V81.52H287.23V73.2H285.23ZM286.23 80.52H262.678V82.52H286.23V80.52ZM261.678 81.52V109.68H263.678V81.52H261.678ZM295.312 118H294.312V119H295.312V118ZM295.312 73.2V72.2H294.312V73.2H295.312ZM303.888 73.2L304.661 72.5662L304.361 72.2H303.888V73.2ZM330.32 105.456V106.456H332.432L331.093 104.822L330.32 105.456ZM326.16 105.456H325.16V106.456H326.16V105.456ZM326.16 73.2V72.2H325.16V73.2H326.16ZM336.4 73.2H337.4V72.2H336.4V73.2ZM336.4 118V119H337.4V118H336.4ZM327.888 118L327.115 118.635L327.415 119H327.888V118ZM301.392 85.744V84.744H299.276L300.619 86.3787L301.392 85.744ZM305.552 85.744H306.552V84.744H305.552V85.744ZM305.552 118V119H306.552V118H305.552ZM296.312 118V73.2H294.312V118H296.312ZM295.312 74.2H303.888V72.2H295.312V74.2ZM303.115 73.8338L329.547 106.09L331.093 104.822L304.661 72.5662L303.115 73.8338ZM330.32 104.456H326.16V106.456H330.32V104.456ZM327.16 105.456V73.2H325.16V105.456H327.16ZM326.16 74.2H336.4V72.2H326.16V74.2ZM335.4 73.2V118H337.4V73.2H335.4ZM336.4 117H327.888V119H336.4V117ZM328.661 117.365L302.165 85.1093L300.619 86.3787L327.115 118.635L328.661 117.365ZM301.392 86.744H305.552V84.744H301.392V86.744ZM304.552 85.744V118H306.552V85.744H304.552ZM305.552 117H295.312V119H305.552V117ZM356.28 118H355.28V119H356.28V118ZM356.28 81.648H357.28V80.648H356.28V81.648ZM341.944 81.648H340.944V82.648H341.944V81.648ZM341.944 73.2V72.2H340.944V73.2H341.944ZM380.983 73.2H381.983V72.2H380.983V73.2ZM380.983 81.648V82.648H381.983V81.648H380.983ZM366.647 81.648V80.648H365.647V81.648H366.647ZM366.647 118V119H367.647V118H366.647ZM357.28 118V81.648H355.28V118H357.28ZM356.28 80.648H341.944V82.648H356.28V80.648ZM342.944 81.648V73.2H340.944V81.648H342.944ZM341.944 74.2H380.983V72.2H341.944V74.2ZM379.983 73.2V81.648H381.983V73.2H379.983ZM380.983 80.648H366.647V82.648H380.983V80.648ZM365.647 81.648V118H367.647V81.648H365.647ZM366.647 117H356.28V119H366.647V117ZM386.562 118H385.562V119H386.562V118ZM386.562 73.2V72.2H385.562V73.2H386.562ZM396.93 73.2H397.93V72.2H396.93V73.2ZM396.93 118V119H397.93V118H396.93ZM387.562 118V73.2H385.562V118H387.562ZM386.562 74.2H396.93V72.2H386.562V74.2ZM395.93 73.2V118H397.93V73.2H395.93ZM396.93 117H386.562V119H396.93V117ZM419.466 117.04L419.106 117.973L419.111 117.975L419.466 117.04ZM411.658 112.176L410.965 112.897L410.972 112.904L411.658 112.176ZM406.538 104.816L405.617 105.207L405.622 105.218L406.538 104.816ZM406.538 86.384L405.622 85.9817L405.617 85.9934L406.538 86.384ZM419.53 74.16L419.17 73.227L419.53 74.16ZM438.986 74.16L438.622 75.0912L438.626 75.093L438.986 74.16ZM446.73 79.024L446.037 79.7451L446.044 79.7518L446.73 79.024ZM451.914 86.384L450.998 86.7863L451.001 86.7914L451.914 86.384ZM451.914 104.88L452.83 105.282L452.832 105.277L451.914 104.88ZM446.73 112.24L447.415 112.968L447.416 112.968L446.73 112.24ZM438.986 117.04L438.626 116.107L438.622 116.109L438.986 117.04ZM434.762 108.912L434.391 107.983L434.382 107.987L434.762 108.912ZM439.242 105.968L438.535 105.261L439.242 105.968ZM442.186 101.424L441.262 101.041L441.258 101.051L441.254 101.06L442.186 101.424ZM442.186 89.776L441.254 90.1395L441.258 90.1493L441.262 90.159L442.186 89.776ZM439.242 85.232L438.523 85.927L438.529 85.9331L438.535 85.9391L439.242 85.232ZM434.826 82.288L434.455 83.2165L434.826 82.288ZM423.69 82.288L423.319 81.3595L423.31 81.3628L423.69 82.288ZM419.274 85.232L419.981 85.9391L419.274 85.232ZM416.266 89.776L415.342 89.393L415.338 89.4027L415.334 89.4125L416.266 89.776ZM416.266 101.424L415.332 101.78L415.337 101.794L415.342 101.807L416.266 101.424ZM419.21 105.968L418.491 106.663L418.497 106.669L418.503 106.675L419.21 105.968ZM423.69 108.912L423.319 109.84L423.69 108.912ZM429.322 117.768C425.891 117.768 422.727 117.21 419.821 116.105L419.111 117.975C422.263 119.174 425.67 119.768 429.322 119.768V117.768ZM419.826 116.107C416.954 114.999 414.463 113.446 412.344 111.448L410.972 112.904C413.29 115.088 416.005 116.777 419.106 117.973L419.826 116.107ZM412.351 111.455C410.271 109.457 408.639 107.112 407.454 104.414L405.622 105.218C406.911 108.152 408.693 110.714 410.965 112.897L412.351 111.455ZM407.459 104.425C406.321 101.743 405.746 98.8057 405.746 95.6H403.746C403.746 99.0503 404.366 102.257 405.617 105.207L407.459 104.425ZM405.746 95.6C405.746 92.3943 406.321 89.4565 407.459 86.7746L405.617 85.9934C404.366 88.9435 403.746 92.1497 403.746 95.6H405.746ZM407.454 86.7863C408.637 84.092 410.288 81.7496 412.408 79.7518L411.036 78.2962C408.719 80.4797 406.913 83.044 405.622 85.9817L407.454 86.7863ZM412.408 79.7518C414.527 77.7544 417.018 76.2007 419.89 75.093L419.17 73.227C416.069 74.4233 413.354 76.1123 411.036 78.2962L412.408 79.7518ZM419.89 75.093C422.751 73.9892 425.871 73.432 429.258 73.432V71.432C425.648 71.432 422.282 72.0268 419.17 73.227L419.89 75.093ZM429.258 73.432C432.69 73.432 435.807 73.9898 438.622 75.0912L439.35 73.2288C436.277 72.0262 432.909 71.432 429.258 71.432V73.432ZM438.626 75.093C441.496 76.2001 443.963 77.752 446.037 79.7451L447.423 78.3029C445.145 76.1147 442.449 74.4239 439.346 73.227L438.626 75.093ZM446.044 79.7518C448.164 81.7496 449.815 84.092 450.998 86.7863L452.83 85.9817C451.539 83.044 449.733 80.4797 447.416 78.2962L446.044 79.7518ZM451.001 86.7914C452.175 89.4231 452.77 92.3542 452.77 95.6H454.77C454.77 92.1045 454.128 88.8916 452.827 85.9766L451.001 86.7914ZM452.77 95.6C452.77 98.8008 452.176 101.758 450.996 104.483L452.832 105.277C454.127 102.285 454.77 99.0552 454.77 95.6H452.77ZM450.998 104.478C449.815 107.172 448.164 109.514 446.044 111.512L447.416 112.968C449.733 110.784 451.539 108.22 452.83 105.282L450.998 104.478ZM446.045 111.512C443.969 113.465 441.501 114.998 438.626 116.107L439.346 117.973C442.445 116.778 445.139 115.111 447.415 112.968L446.045 111.512ZM438.622 116.109C435.805 117.211 432.709 117.768 429.322 117.768V119.768C432.932 119.768 436.279 119.173 439.35 117.971L438.622 116.109ZM429.258 110.936C431.379 110.936 433.344 110.575 435.142 109.837L434.382 107.987C432.852 108.615 431.148 108.936 429.258 108.936V110.936ZM435.133 109.84C436.964 109.108 438.572 108.052 439.949 106.675L438.535 105.261C437.352 106.444 435.974 107.35 434.391 107.984L435.133 109.84ZM439.949 106.675C441.331 105.294 442.387 103.661 443.118 101.788L441.254 101.06C440.62 102.686 439.713 104.082 438.535 105.261L439.949 106.675ZM443.11 101.807C443.891 99.9218 444.274 97.8482 444.274 95.6H442.274C442.274 97.6185 441.931 99.4275 441.262 101.041L443.11 101.807ZM444.274 95.6C444.274 93.3518 443.891 91.2782 443.11 89.393L441.262 90.159C441.931 91.7725 442.274 93.5815 442.274 95.6H444.274ZM443.118 89.4125C442.387 87.5392 441.331 85.9063 439.949 84.5249L438.535 85.9391C439.713 87.1177 440.62 88.5141 441.254 90.1395L443.118 89.4125ZM439.961 84.537C438.622 83.1522 437.031 82.0929 435.197 81.3595L434.455 83.2165C436.035 83.8485 437.387 84.7518 438.523 85.927L439.961 84.537ZM435.197 81.3595C433.362 80.6255 431.379 80.264 429.258 80.264V82.264C431.148 82.264 432.876 82.5852 434.455 83.2165L435.197 81.3595ZM429.258 80.264C427.137 80.264 425.154 80.6255 423.319 81.3595L424.061 83.2165C425.64 82.5852 427.368 82.264 429.258 82.264V80.264ZM423.31 81.3628C421.523 82.0961 419.94 83.1518 418.567 84.5249L419.981 85.9391C421.168 84.7521 422.529 83.8452 424.07 83.2132L423.31 81.3628ZM418.567 84.5249C417.19 85.9019 416.115 87.5281 415.342 89.393L417.19 90.159C417.867 88.5252 418.798 87.1221 419.981 85.9391L418.567 84.5249ZM415.334 89.4125C414.601 91.2923 414.242 93.3591 414.242 95.6H416.242C416.242 93.5743 416.566 91.7583 417.198 90.1395L415.334 89.4125ZM414.242 95.6C414.242 97.8013 414.602 99.8645 415.332 101.78L417.201 101.068C416.565 99.3995 416.242 97.58 416.242 95.6H414.242ZM415.342 101.807C416.113 103.665 417.161 105.287 418.491 106.663L419.929 105.273C418.784 104.089 417.87 102.682 417.19 101.041L415.342 101.807ZM418.503 106.675C419.88 108.052 421.488 109.108 423.319 109.84L424.061 107.984C422.478 107.35 421.1 106.444 419.917 105.261L418.503 106.675ZM423.319 109.84C425.154 110.575 427.137 110.936 429.258 110.936V108.936C427.368 108.936 425.64 108.615 424.061 107.984L423.319 109.84ZM461.562 118H460.562V119H461.562V118ZM461.562 73.2V72.2H460.562V73.2H461.562ZM470.138 73.2L470.911 72.5662L470.611 72.2H470.138V73.2ZM496.57 105.456V106.456H498.682L497.343 104.822L496.57 105.456ZM492.41 105.456H491.41V106.456H492.41V105.456ZM492.41 73.2V72.2H491.41V73.2H492.41ZM502.65 73.2H503.65V72.2H502.65V73.2ZM502.65 118V119H503.65V118H502.65ZM494.138 118L493.365 118.635L493.665 119H494.138V118ZM467.642 85.744V84.744H465.526L466.869 86.3787L467.642 85.744ZM471.802 85.744H472.802V84.744H471.802V85.744ZM471.802 118V119H472.802V118H471.802ZM462.562 118V73.2H460.562V118H462.562ZM461.562 74.2H470.138V72.2H461.562V74.2ZM469.365 73.8338L495.797 106.09L497.343 104.822L470.911 72.5662L469.365 73.8338ZM496.57 104.456H492.41V106.456H496.57V104.456ZM493.41 105.456V73.2H491.41V105.456H493.41ZM492.41 74.2H502.65V72.2H492.41V74.2ZM501.65 73.2V118H503.65V73.2H501.65ZM502.65 117H494.138V119H502.65V117ZM494.911 117.365L468.415 85.1093L466.869 86.3787L493.365 118.635L494.911 117.365ZM467.642 86.744H471.802V84.744H467.642V86.744ZM470.802 85.744V118H472.802V85.744H470.802ZM471.802 117H461.562V119H471.802V117Z" fill="white" mask="url(#path-1-outside-1_1_92)"/>
</svg>
